<svg width="480" height="480" viewBox="0 0 480 480" fill="#222026" xmlns="http://www.w3.org/2000/svg">
<path d="M336.9 43.8C313.2 46.8 254.2 61.5 250.3 132.2C250.1 136.2 254.1 139.7 258.8 139.4C329.4 134.8 343.3 73.9 346 51.3C346.5 46.8 342.1 43.1 336.9 43.8Z" fill="inherit"/>
<path d="M293 236.2C290.9 233.2 287 232 283.6 233.4L266.6 239.2L238.2 248.8C237 249.3 236 249.8 234.9 250.5C232.8 251.8 231.1 253.5 229.7 255.4C229.4 255.9 229 256.4 228.8 256.9C228.4 257.5 228.1 258.2 227.8 258.9C227.4 259.8 227.1 260.8 226.8 261.7V261.8C226.7 262.3 226.6 262.9 226.5 263.4C226.5 263.5 226.5 263.5 226.5 263.6C226.4 264.1 226.4 264.7 226.3 265.2C226.3 265.3 226.3 265.3 226.3 265.4C226.3 265.9 226.2 266.5 226.3 267.1C226.3 267.1 226.3 267.1 226.3 267.2C226.3 267.8 226.4 268.3 226.4 268.9V269C226.5 269.5 226.6 270.1 226.7 270.6C226.7 270.7 226.7 270.8 226.8 270.8C226.9 271.3 227.1 271.8 227.2 272.3C227.2 272.4 227.3 272.5 227.3 272.6C227.5 273.1 227.7 273.6 227.9 274.1C227.9 274.2 228 274.2 228 274.3C228.2 274.8 228.5 275.4 228.8 275.9L229 276.3C233.7 284.8 244 288.4 253 284.8L283.7 274C284.7 278.5 285.4 283.1 285.4 288.1C285.4 315.3 259 337.4 229.4 337.4C199.8 337.4 173.4 315.3 173.4 288.1C173.4 252.9 206.1 231.8 205.6 210.7C204.9 181.9 221.9 173.3 228.8 173.3C236.4 173.3 250.2 176.8 253.3 210.7V210.8C253.9 216.7 259.9 220.4 265.5 218.6L271.3 216.7C275.9 215.2 278.4 210.4 277.3 205.7C276.7 203 276.3 200.3 276.3 197.7C276.3 175.6 261 157.2 240.4 152.1C238.1 131.1 229.1 116.2 219.9 107C209.2 96.2999 197.6 92.3999 197.6 92.3999C196.5 91.9999 195.3 91.7999 194.2 91.7999C187.7 91.4999 182.2 96.5999 182 103.1C181.8 108.4 185.2 113.2 190.2 114.8C190.2 114.8 196.3 116.7 203.3 123.7C209.1 129.5 214.9 138.2 216.8 152.6C196.9 158.1 182.2 176.1 182.2 197.8C182.2 233.1 123.3 268.4 123.3 327.3C123.3 372.8 170.7 409.7 229.3 409.7C287.8 409.7 335.3 372.8 335.3 327.3C335.3 299.9 322.6 277.7 309 258.1C303.3 250.3 297.9 243.1 293 236.2Z" fill="inherit"/>
</svg>
