<svg width="38" height="38" viewBox="0 0 38 38" fill="none" xmlns="http://www.w3.org/2000/svg">
<path d="M26.6713 3.46746C24.7951 3.70496 20.1243 4.86871 19.8155 10.4658C19.7997 10.7825 20.1163 11.0595 20.4884 11.0358C26.0776 10.6716 27.178 5.85037 27.3918 4.06121C27.4313 3.70496 27.083 3.41204 26.6713 3.46746Z" fill="white"/>
<path d="M23.1958 18.699C23.0296 18.4615 22.7208 18.3665 22.4516 18.4774L21.1058 18.9365L18.8575 19.6965C18.7625 19.7361 18.6833 19.7757 18.5962 19.8311C18.43 19.934 18.2954 20.0686 18.1846 20.219C18.1608 20.2586 18.1291 20.2982 18.1133 20.3378C18.0816 20.3853 18.0579 20.4407 18.0341 20.4961C18.0025 20.5674 17.9787 20.6465 17.955 20.7178V20.7257C17.9471 20.7653 17.9391 20.8128 17.9312 20.8524C17.9312 20.8603 17.9312 20.8603 17.9312 20.8682C17.9233 20.9078 17.9233 20.9553 17.9154 20.9949C17.9154 21.0028 17.9154 21.0028 17.9154 21.0107C17.9154 21.0503 17.9075 21.0978 17.9154 21.1453C17.9154 21.1453 17.9154 21.1453 17.9154 21.1532C17.9154 21.2007 17.9233 21.2403 17.9233 21.2878V21.2957C17.9312 21.3353 17.9391 21.3828 17.9471 21.4224C17.9471 21.4303 17.9471 21.4382 17.955 21.4382C17.9629 21.4778 17.9787 21.5174 17.9866 21.5569C17.9866 21.5649 17.9946 21.5728 17.9946 21.5807C18.0104 21.6203 18.0262 21.6599 18.0421 21.6994C18.0421 21.7074 18.05 21.7074 18.05 21.7153C18.0658 21.7549 18.0896 21.8024 18.1133 21.8419L18.1291 21.8736C18.5012 22.5465 19.3166 22.8315 20.0291 22.5465L22.4596 21.6915C22.5387 22.0478 22.5941 22.4119 22.5941 22.8078C22.5941 24.9611 20.5041 26.7107 18.1608 26.7107C15.8175 26.7107 13.7275 24.9611 13.7275 22.8078C13.7275 20.0211 16.3162 18.3507 16.2766 16.6803C16.2212 14.4003 17.5671 13.7194 18.1133 13.7194C18.715 13.7194 19.8075 13.9965 20.0529 16.6803V16.6882C20.1004 17.1553 20.5754 17.4482 21.0187 17.3057L21.4779 17.1553C21.8421 17.0365 22.04 16.6565 21.9529 16.2844C21.9054 16.0707 21.8737 15.8569 21.8737 15.6511C21.8737 13.9015 20.6625 12.4449 19.0316 12.0411C18.8496 10.3786 18.1371 9.19902 17.4087 8.47069C16.5616 7.6236 15.6433 7.31485 15.6433 7.31485C15.5562 7.28319 15.4612 7.26735 15.3741 7.26735C14.8596 7.2436 14.4241 7.64735 14.4083 8.16194C14.3925 8.58152 14.6616 8.96152 15.0575 9.08819C15.0575 9.08819 15.5404 9.2386 16.0946 9.79277C16.5537 10.2519 17.0129 10.9407 17.1633 12.0807C15.5879 12.5161 14.4241 13.9411 14.4241 15.659C14.4241 18.4536 9.76123 21.2482 9.76123 25.9111C9.76123 29.5132 13.5137 32.4344 18.1529 32.4344C22.7841 32.4344 26.5446 29.5132 26.5446 25.9111C26.5446 23.7419 25.5391 21.9844 24.4625 20.4328C24.0112 19.8153 23.5837 19.2453 23.1958 18.699Z" fill="white"/>
</svg>
