<svg width="38" height="38" viewBox="0 0 38 38" fill="none" xmlns="http://www.w3.org/2000/svg">
<path fill-rule="evenodd" clip-rule="evenodd" d="M11.626 8H27.326C27.926 8 28.426 8.1 29.026 8.4C29.726 8.7 30.126 9.2 30.326 9.6C30.326 9.6 30.326 9.7 30.426 9.7C30.726 10.2 30.926 10.8 30.926 11.5C30.926 12.1 30.826 12.7 30.426 13.3L20.526 30.3C20.326 30.7 19.926 30.9 19.426 30.9C19.026 30.9 18.626 30.7 18.326 30.3L8.62601 13.3C8.42601 12.9 8.02601 12.4 8.02601 11.6C7.92601 10.9 8.12601 10.3 8.42601 9.7C8.72601 9.1 9.22601 8.6 9.92601 8.4C10.526 8 11.226 8 11.626 8ZM18.226 10.4H11.626C11.226 10.4 11.026 10.4 10.926 10.5C10.726 10.6 10.626 10.7 10.526 10.9C10.426 11 10.426 11.2 10.426 11.4C10.426 11.5 10.526 11.6 10.726 12L18.226 25V10.4ZM20.626 10.4V25.1L28.226 12C28.326 11.8 28.326 11.6 28.326 11.4C28.326 11.2 28.326 11 28.226 10.9C28.126 10.8 28.126 10.7 28.026 10.7L27.926 10.6C27.726 10.5 27.526 10.5 27.226 10.5H20.626V10.4Z" fill="white"/>
</svg>
